<?xml version="1.0"?>
<svg xmlns="http://www.w3.org/2000/svg" height="512px" viewBox="0 0 512 512" width="512px" class=""><g><g><g><path d="m472 416h-432a24 24 0 0 1 -24-24v-32h480v32a24 24 0 0 1 -24 24z" fill="#57565c" data-original="#57565C" class="active-path" style="fill:#B8DBD9" data-old_color="#57565c"/><path d="m288 384h-64l-8-24h80z" fill="#2d2d30" data-original="#2D2D30"/><path d="m80 96h352a40 40 0 0 1 40 40v224a0 0 0 0 1 0 0h-432a0 0 0 0 1 0 0v-224a40 40 0 0 1 40-40z" fill="#83d8f4" data-original="#83D8F4" class="" style="fill:#337356" data-old_color="#83d8f4"/><path d="m192 176c-24 16-80 16-80 16v-16a32 32 0 0 1 32-32h16a32 32 0 0 1 32 32z" fill="#ffda44" data-original="#FFDA44" class=""/><path d="m192 176v32a32 32 0 0 1 -32 32h-16a32 32 0 0 1 -32-32v-16s56 0 80-16z" fill="#ffdaaa" data-original="#FFDAAA" class=""/><path d="m232 288v72h-160v-72a24.006 24.006 0 0 1 24-24l40-8a16 16 0 0 0 32 0l40 8a24.006 24.006 0 0 1 24 24z" fill="#898890" data-original="#898890" class=""/><path d="m136 240h32v32h-32z" fill="#ffdaaa" data-original="#FFDAAA" class=""/><path d="m424 192v72h-128v-72a64 64 0 1 1 128 0z" fill="#6a563d" data-original="#6A563D" class=""/><path d="m400 176v32a32 32 0 0 1 -32 32h-16a32 32 0 0 1 -32-32v-16s56 0 80-16z" fill="#ffdaaa" data-original="#FFDAAA" class=""/><path d="m440 288v72h-160v-72a24.006 24.006 0 0 1 24-24l40-8a16 16 0 0 0 32 0l40 8a24.006 24.006 0 0 1 24 24z" fill="#ff9811" data-original="#FF9811" class=""/><path d="m344 240h32v32h-32z" fill="#ffdaaa" data-original="#FFDAAA" class=""/></g><g><path d="m496 352h-16v-216a48.051 48.051 0 0 0 -48-48h-352a48.051 48.051 0 0 0 -48 48v216h-16a8 8 0 0 0 -8 8v32a32.036 32.036 0 0 0 32 32h432a32.036 32.036 0 0 0 32-32v-32a8 8 0 0 0 -8-8zm-232-248h168a32.036 32.036 0 0 1 32 32v216h-16v-64a32.005 32.005 0 0 0 -16-27.7v-68.3a72 72 0 0 0 -144 0v68.3a32.005 32.005 0 0 0 -16 27.7v64h-8zm144 200a8 8 0 0 0 -8 8v40h-80v-40a8 8 0 0 0 -16 0v40h-16v-64a16.021 16.021 0 0 1 16-16 7.537 7.537 0 0 0 1.57-.16l32.34-6.46a24 24 0 0 0 44.18 0l32.34 6.46a7.537 7.537 0 0 0 1.57.16 16.021 16.021 0 0 1 16 16v64h-16v-40a8 8 0 0 0 -8-8zm-56-72a24.032 24.032 0 0 1 -24-24v-8.19c13.89-.54 42.86-2.65 64-10.88v19.07a24.032 24.032 0 0 1 -24 24zm16 16v8a8 8 0 0 1 -16 0v-8zm16-3.35a40.06 40.06 0 0 0 24-36.65v-32a8.038 8.038 0 0 0 -1.34-4.44h-.01a7.992 7.992 0 0 0 -11.08-2.22h-.01c-18 12.01-60.65 14.65-75.56 14.66-.09 0-.18.01-.26.01a8 8 0 0 0 -7.74 7.99v16a40.06 40.06 0 0 0 24 36.65v4.79l-32 6.4v-63.84a56 56 0 0 1 112 0v63.84l-32-6.4zm-99.1 123.35-2.67 8h-52.46l-2.67-8zm-236.9-232a32.036 32.036 0 0 1 32-32h168v248h-8v-64a32.041 32.041 0 0 0 -31.15-31.99l-32.85-6.57v-4.79a40.06 40.06 0 0 0 24-36.65v-32a40.04 40.04 0 0 0 -40-40h-16a40.04 40.04 0 0 0 -40 40v32a40.06 40.06 0 0 0 24 36.65v4.79l-32.85 6.57a32.041 32.041 0 0 0 -31.15 31.99v64h-16zm152 168a8 8 0 0 0 -8 8v40h-80v-40a8 8 0 0 0 -16 0v40h-16v-64a16.021 16.021 0 0 1 16-16 7.537 7.537 0 0 0 1.57-.16l32.34-6.46a24 24 0 0 0 44.18 0l32.34 6.46a7.537 7.537 0 0 0 1.57.16 16.021 16.021 0 0 1 16 16v64h-16v-40a8 8 0 0 0 -8-8zm-16-115.07v19.07a24.032 24.032 0 0 1 -24 24h-16a24.032 24.032 0 0 1 -24-24v-8.19c13.89-.54 42.86-2.65 64-10.88zm-64-5.12v-7.81a24.032 24.032 0 0 1 24-24h16a24.043 24.043 0 0 1 23.6 19.64c-16.64 8.5-46.4 11.46-63.6 12.17zm40 64.19v8a8 8 0 0 1 -16 0v-8zm328 144a16.021 16.021 0 0 1 -16 16h-432a16.021 16.021 0 0 1 -16-16v-24h186.23l6.18 18.53a8 8 0 0 0 7.59 5.47h64a8 8 0 0 0 7.59-5.47l6.18-18.53h186.23z" data-original="#000000" class=""/><path d="m144 376h-80a8 8 0 0 0 0 16h80a8 8 0 0 0 0-16z" data-original="#000000" class=""/><path d="m176 376h-8a8 8 0 0 0 0 16h8a8 8 0 0 0 0-16z" data-original="#000000" class=""/></g></g></g> </svg>
