<?xml version="1.0"?>
<svg xmlns="http://www.w3.org/2000/svg" xmlns:xlink="http://www.w3.org/1999/xlink" version="1.1" id="Capa_1" x="0px" y="0px" viewBox="0 0 511.986 511.986" style="enable-background:new 0 0 511.986 511.986;" xml:space="preserve" width="512px" height="512px" class=""><g><path style="fill:#B8DBD9" d="M409.57,341.345V285.29c0-11.45-9.65-20.733-21.552-20.733H309.95h-99.612h-79.766  c-15.545,0-28.156,11.902-28.156,26.586v50.203" data-original="#B47923" class="" data-old_color="#B47923"/><path style="fill:#337356" d="M377.072,503.454h75.159V364.092c0-21.987-24.24-39.819-54.136-39.819H113.892  c-29.896,0.009-54.136,17.832-54.136,39.819v139.354h66.806h250.51V503.454z" data-original="#6FBBC6" class="" data-old_color="#6FBBC6"/><g>
	<rect x="59.756" y="460.359" style="fill:#FDC9A6;" width="59.724" height="43.087" data-original="#FDC9A6" class=""/>
	<rect x="392.506" y="460.359" style="fill:#FDC9A6;" width="59.724" height="43.087" data-original="#FDC9A6" class=""/>
</g><rect x="221.865" y="256.033" style="fill:#F6BB92;" width="68.256" height="42.66" data-original="#F6BB92"/><g>
	<polyline style="fill:#CAF0EE" points="102.416,314.324 102.416,426.666 153.609,426.666 153.609,314.324  " data-original="#EA9D2D" class="active-path" data-old_color="#EA9D2D"/>
	<polyline style="fill:#CAF0EE" points="358.378,314.324 358.378,426.666 409.57,426.666 409.57,314.324  " data-original="#EA9D2D" class="active-path" data-old_color="#EA9D2D"/>
</g><g>
	<rect x="102.416" y="324.29" style="fill:#7CD8D2" width="51.192" height="25.596" data-original="#D68F29" class="" data-old_color="#D68F29"/>
	<rect x="358.378" y="324.29" style="fill:#7CD8D2" width="51.192" height="25.596" data-original="#D68F29" class="" data-old_color="#D68F29"/>
</g><rect x="102.416" y="302.951" style="fill:#B8DBD9" width="307.154" height="21.33" data-original="#B47923" class="" data-old_color="#B47923"/><path style="fill:#FDC9A6;" d="M290.121,264.557v59.724h34.128v8.745c0,25.528-15.835,48.385-39.742,57.344l-5.486,2.056  c-14.778,5.546-31.125,5.162-45.629-1.049l0,0c-22.525-9.65-37.123-31.79-37.123-56.295v-10.81h25.596v-59.724h68.256V264.557z" data-original="#FDC9A6" class=""/><g>
	<path style="fill:#F6BB92;" d="M170.673,175.951h-17.064c-14.138,0-25.596-11.578-25.596-25.852l0,0   c0-14.283,11.459-25.852,25.596-25.852h17.064V175.951z" data-original="#F6BB92"/>
	<path style="fill:#F6BB92;" d="M341.314,175.951h17.064c14.138,0,25.596-11.578,25.596-25.852l0,0   c0-14.283-11.459-25.852-25.596-25.852h-17.064V175.951z" data-original="#F6BB92"/>
</g><path style="fill:#FDC9A6;" d="M349.846,134.255c0,96.745-42.02,145.122-93.853,145.122S162.141,231,162.141,134.255  c0-57.881,42.02-104.808,93.853-104.808S349.846,76.365,349.846,134.255z" data-original="#FDC9A6" class=""/><g>
	<ellipse style="fill:#744630;" cx="209.067" cy="163.034" rx="12.798" ry="12.926" data-original="#744630" class=""/>
	<ellipse style="fill:#744630;" cx="294.387" cy="163.034" rx="12.798" ry="12.926" data-original="#744630" class=""/>
	<path style="fill:#744630;" d="M257.137,246.307c-13.89,0-26.287-6.493-33.019-12.073l10.887-13.139l-5.443,6.57l5.418-6.595   c2.244,1.826,22.456,17.354,40.809,0.341l11.604,12.517C277.545,243.056,266.965,246.307,257.137,246.307z" data-original="#744630" class=""/>
	<path style="fill:#744630;" d="M260.677,209.423l-17.064-8.617c-3.771-1.903-5.58-6.28-4.258-10.29l8.532-25.852l16.202,5.35   l-6.228,18.873l10.503,5.307L260.677,209.423z" data-original="#744630" class=""/>
	<path style="fill:#744630;" d="M162.141,162.172l51.192-68.256l145.045,59.724l6.254-26.902   c11.791-27.789,6.518-59.972-13.506-82.445l-8.925-10.017c-21.125-23.711-54.469-31.935-84.041-20.741l-19.231,7.286l-7.679-1.297   c-25.861-4.351-51.508,8.839-63.24,32.524l-6.058,12.235c-5.435,10.972-7.423,23.361-5.708,35.51L162.141,162.172z" data-original="#744630" class=""/>
</g><ellipse cx="209.067" cy="163.034" rx="12.798" ry="12.926" data-original="#000000" class="" style="fill:#000000"/><ellipse cx="294.387" cy="163.034" rx="12.798" ry="12.926" data-original="#000000" class="" style="fill:#000000"/><path d="M234.979,221.069l-5.418,6.595l-5.443,6.57c6.732,5.58,19.129,12.073,33.019,12.073c9.829,0,20.409-3.251,30.255-12.389  l-11.604-12.517C257.435,238.423,237.223,222.895,234.979,221.069z" data-original="#000000" class="" style="fill:#000000"/><path d="M243.613,200.805l17.064,8.617l7.687-15.23l-10.503-5.307l6.228-18.873l-16.202-5.35l-8.532,25.852  C238.033,194.526,239.842,198.903,243.613,200.805z" data-original="#000000" class="" style="fill:#000000"/><path d="M128.012,511.986h255.962h68.256h8.532v-8.532v-51.627v-87.735c0-21.253-17.9-39.316-42.66-45.774V285.29  c0-16.143-13.498-29.265-30.084-29.265h-64.792c14.027-16.382,25.204-39.717,30.937-71.533h4.215  c18.822,0,34.128-15.426,34.128-34.393c0-12.346-6.629-23.429-16.808-29.504c8.302-28.403,1.706-59.639-18.199-81.967l-8.925-10.017  C324.924,2.068,288.253-6.967,255.148,5.566l-17.081,6.467l-5.401-0.904c-29.768-5-58.82,9.923-72.301,37.157l-6.049,12.235  c-6.228,12.576-8.481,26.577-6.561,40.101l1.468,15.545c-16.731,2.184-29.743,16.484-29.743,33.932  c0,18.967,15.306,34.393,34.128,34.393h4.351c5.785,31.816,16.97,55.185,31.023,71.533h-58.41  c-20.229,0-36.688,15.759-36.688,35.118v27.175c-24.76,6.459-42.66,24.521-42.66,45.774v87.735v51.627v8.532h8.532L128.012,511.986  L128.012,511.986z M68.288,494.922v-26.031h42.66v26.031H68.288z M443.698,494.922h-42.66v-26.031h42.66V494.922z M366.91,332.813  h31.185c0.99,0,1.962,0.06,2.944,0.102v85.218H366.91V332.813z M401.038,285.29v30.57c-0.981-0.034-1.945-0.111-2.944-0.111H324.25  h-25.596v-39.145c1.851-1.058,3.66-2.304,5.469-3.515h83.896C395.194,273.089,401.038,278.558,401.038,285.29z M204.801,332.813  h17.064h68.256h25.596v0.213c0,21.851-13.745,41.688-34.205,49.358l-5.495,2.056c-12.781,4.795-26.722,4.462-39.273-0.896  c-19.402-8.327-31.944-27.345-31.944-48.462V332.813z M255.993,270.845c-45.339,0-77.044-41.15-83.844-107.794l44.042-58.726  l124.295,51.184C335.324,226.768,303.312,270.845,255.993,270.845z M255.993,287.909c8.472,0,17.107-1.246,25.596-3.882v31.731  h-51.192v-31.765C238.912,286.646,247.555,287.909,255.993,287.909z M358.378,167.419h-1.783c0.196-1.792,0.29-3.729,0.452-5.563  c1.783,0.282,3.601,0.196,5.239-0.64c2.227-1.143,3.839-3.208,4.403-5.648l4.036-17.354c2.927,3.14,4.718,7.338,4.718,11.885  C375.442,159.647,367.789,167.419,358.378,167.419z M169.606,68.081l6.058-12.243c10.119-20.443,31.91-31.662,54.17-27.9  l7.679,1.288c1.502,0.256,3.029,0.102,4.437-0.435l19.24-7.286c26.466-10,55.748-2.773,74.647,18.438l8.925,10.017  c17.465,19.607,22.243,47.788,12.448,72.181c-0.102,0.264-0.299,0.461-0.375,0.742c-0.043,0.145,0,0.29-0.026,0.444  c-0.009,0.026-0.017,0.051-0.026,0.068c-0.188,0.452-0.35,0.921-0.461,1.399l-3.984,17.124L216.575,86.015  c-1.058-0.435-2.159-0.64-3.242-0.64c-2.628,0-5.179,1.212-6.826,3.413l-37.951,50.604l-3.865-40.783  C163.207,88.122,164.905,77.56,169.606,68.081z M136.544,150.099c0-8.583,6.194-15.673,14.274-17.038l2.824,29.913  c0.162,1.664,0.819,3.191,1.817,4.445h-1.851C144.198,167.419,136.544,159.647,136.544,150.099z M110.948,291.143  c0-9.957,8.805-18.054,19.624-18.054h77.394c1.775,1.194,3.558,2.346,5.367,3.387v39.273h-17.064h-82.377  c-0.99,0-1.962,0.077-2.944,0.111V291.143z M110.948,332.916c0.981-0.043,1.954-0.102,2.944-0.102h31.185v85.321h-34.128V332.916z   M68.288,364.092c0-12.064,10.597-22.763,25.596-27.951v90.525c0,4.71,3.822,8.532,8.532,8.532h51.192  c4.71,0,8.532-3.822,8.532-8.532v-93.853h25.596v2.278c0,27.951,16.603,53.129,42.293,64.135c8.805,3.771,18.131,5.665,27.473,5.665  c8.276,0,16.569-1.485,24.521-4.462l5.495-2.056c27.064-10.162,45.263-36.423,45.263-65.347v-0.213h17.064v93.853  c0,4.71,3.822,8.532,8.532,8.532h51.192c4.71,0,8.532-3.822,8.532-8.532v-90.525c14.999,5.188,25.596,15.895,25.596,27.951v87.735  h-59.724v43.095H128.012v-43.095H68.288V364.092z" data-original="#000000" class="" style="fill:#000000"/></g> </svg>
