<?xml version="1.0"?>
<svg xmlns="http://www.w3.org/2000/svg" width="512px" height="512px" viewBox="0 0 512 512" class=""><g><g><path d="M496,352H480V136a48.051,48.051,0,0,0-48-48H80a48.051,48.051,0,0,0-48,48V352H16a8,8,0,0,0-8,8v32a32.036,32.036,0,0,0,32,32H472a32.036,32.036,0,0,0,32-32V360A8,8,0,0,0,496,352ZM264,104H432a32.036,32.036,0,0,1,32,32V352H448V288a32.005,32.005,0,0,0-16-27.7V192a72,72,0,0,0-144,0v68.3A32.005,32.005,0,0,0,272,288v64h-8ZM408,304a8,8,0,0,0-8,8v40H320V312a8,8,0,0,0-16,0v40H288V288a16.021,16.021,0,0,1,16-16,7.537,7.537,0,0,0,1.57-.16l32.34-6.46a24,24,0,0,0,44.18,0l32.34,6.46A7.537,7.537,0,0,0,416,272a16.021,16.021,0,0,1,16,16v64H416V312A8,8,0,0,0,408,304Zm-56-72a24.032,24.032,0,0,1-24-24v-8.19c13.89-.54,42.86-2.65,64-10.88V208a24.032,24.032,0,0,1-24,24Zm16,16v8a8,8,0,0,1-16,0v-8Zm16-3.35A40.06,40.06,0,0,0,408,208V176a8.038,8.038,0,0,0-1.34-4.44h-.01a7.992,7.992,0,0,0-11.08-2.22h-.01c-18,12.01-60.65,14.65-75.56,14.66-.09,0-.18.01-.26.01A8,8,0,0,0,312,192v16a40.06,40.06,0,0,0,24,36.65v4.79l-32,6.4V192a56,56,0,0,1,112,0v63.84l-32-6.4ZM284.9,368l-2.67,8H229.77l-2.67-8ZM48,136a32.036,32.036,0,0,1,32-32H248V352h-8V288a32.041,32.041,0,0,0-31.15-31.99L176,249.44v-4.79A40.06,40.06,0,0,0,200,208V176a40.04,40.04,0,0,0-40-40H144a40.04,40.04,0,0,0-40,40v32a40.06,40.06,0,0,0,24,36.65v4.79l-32.85,6.57A32.041,32.041,0,0,0,64,288v64H48ZM200,304a8,8,0,0,0-8,8v40H112V312a8,8,0,0,0-16,0v40H80V288a16.021,16.021,0,0,1,16-16,7.537,7.537,0,0,0,1.57-.16l32.34-6.46a24,24,0,0,0,44.18,0l32.34,6.46A7.537,7.537,0,0,0,208,272a16.021,16.021,0,0,1,16,16v64H208V312A8,8,0,0,0,200,304ZM184,188.93V208a24.032,24.032,0,0,1-24,24H144a24.032,24.032,0,0,1-24-24v-8.19C133.89,199.27,162.86,197.16,184,188.93Zm-64-5.12V176a24.032,24.032,0,0,1,24-24h16a24.043,24.043,0,0,1,23.6,19.64C166.96,180.14,137.2,183.1,120,183.81ZM160,248v8a8,8,0,0,1-16,0v-8ZM488,392a16.021,16.021,0,0,1-16,16H40a16.021,16.021,0,0,1-16-16V368H210.23l6.18,18.53A8,8,0,0,0,224,392h64a8,8,0,0,0,7.59-5.47L301.77,368H488Z" data-original="#000000" class="active-path" data-old_color="#000000" fill="#337357"/><path d="M144,376H64a8,8,0,0,0,0,16h80a8,8,0,0,0,0-16Z" data-original="#000000" class="active-path" data-old_color="#000000" fill="#337357"/><path d="M176,376h-8a8,8,0,0,0,0,16h8a8,8,0,0,0,0-16Z" data-original="#000000" class="active-path" data-old_color="#000000" fill="#337357"/></g></g> </svg>
